<svg width="25" height="25" viewBox="0 0 25 25" fill="none" xmlns="http://www.w3.org/2000/svg">
<path d="M19.2738 19.173V24.087C19.2738 24.64 18.5991 24.9002 18.2241 24.5089L12.4322 19.173H7.5489C6.02645 19.173 4.78333 17.9298 4.78333 16.4074V5.76351C4.78333 4.24135 6.02645 2.99823 7.5489 2.99823H21.4261C22.9485 2.99823 24.1917 4.24106 24.1917 5.76351V16.4074C24.1917 17.9298 22.9485 19.173 21.4261 19.173H19.2738V19.173ZM9.40148 9.63667C9.97815 9.63667 10.4456 10.1041 10.4456 10.6808C10.4456 11.2575 9.97815 11.7249 9.40148 11.7249C8.8248 11.7249 8.35737 11.2575 8.35737 10.6808C8.35737 10.1041 8.8248 9.63667 9.40148 9.63667ZM19.5735 9.63667C20.1502 9.63667 20.6176 10.1041 20.6176 10.6808C20.6176 11.2575 20.1502 11.7249 19.5735 11.7249C18.9968 11.7249 18.5294 11.2575 18.5294 10.6808C18.5294 10.1041 18.9968 9.63667 19.5735 9.63667ZM16.1828 9.63667C16.7595 9.63667 17.2269 10.1041 17.2269 10.6808C17.2269 11.2575 16.7595 11.7249 16.1828 11.7249C15.6061 11.7249 15.1387 11.2575 15.1387 10.6808C15.1387 10.1041 15.6061 9.63667 16.1828 9.63667ZM12.7922 9.63667C13.3688 9.63667 13.8363 10.1041 13.8363 10.6808C13.8363 11.2575 13.3688 11.7249 12.7922 11.7249C12.2155 11.7249 11.748 11.2575 11.748 10.6808C11.748 10.1041 12.2155 9.63667 12.7922 9.63667ZM3.57417 15.2585C4.37614 15.2585 4.37614 16.4783 3.57417 16.4783C2.05171 16.4783 0.808594 15.2351 0.808594 13.7127V3.06881C0.808594 1.54665 2.05171 0.303528 3.57417 0.303528H17.4516C18.2536 0.303528 18.2536 1.52303 17.4516 1.52303H3.57417C2.72524 1.52303 2.02839 2.21988 2.02839 3.06881V13.7127C2.02839 14.5616 2.72524 15.2585 3.57417 15.2585ZM18.0543 22.6977V18.5629C18.0543 18.2263 18.3274 17.9532 18.664 17.9532H21.4261C22.275 17.9532 22.9722 17.2563 22.9722 16.4074V5.76351C22.9722 4.91459 22.275 4.21773 21.4261 4.21773H7.5489C6.69968 4.21773 6.00283 4.91459 6.00283 5.76351V16.4074C6.00283 17.2563 6.69968 17.9532 7.5489 17.9532L12.6684 17.9547C12.8158 17.9547 12.9637 18.0075 13.0806 18.1153L18.0543 22.6977V22.6977Z" fill="#414042"/>
</svg>
