<svg width="27" height="27" viewBox="0 0 27 27" fill="none" xmlns="http://www.w3.org/2000/svg">
<g clip-path="url(#clip0_1412_520)">
<path d="M7.46981 23.8709C6.74981 23.4239 3.2398 26.0166 2.6998 25.3908C2.1598 24.8543 4.4998 21.1888 4.0498 20.5629C2.6098 18.5961 1.7998 16.1822 1.7998 13.5894C1.7998 6.97354 7.1998 1.5199 13.9498 1.5199C20.6998 1.5199 26.0998 6.97354 26.0998 13.5894C26.0998 20.2053 20.6998 25.659 13.9498 25.659C13.0498 25.659 12.2398 25.5696 11.4298 25.3908" stroke="#414042" stroke-width="2" stroke-miterlimit="10" stroke-linecap="round" stroke-linejoin="round"/>
<path d="M11.4297 7.50995L12.5097 10.1921C12.5997 10.3709 12.5097 10.5497 12.3297 10.6391C11.8797 10.9073 11.2497 11.5331 11.9697 12.5166C12.8697 13.7682 15.2997 16.8974 17.2797 14.8411C17.3697 14.7517 17.5497 14.6623 17.7297 14.7517L20.6097 16.0033C20.7897 16.0927 20.8797 16.3609 20.7897 16.5398C20.1597 17.7914 17.7297 21.0994 11.6997 15.9139C5.57975 10.6391 9.53975 8.04638 10.8897 7.42055C11.0697 7.15234 11.3397 7.24174 11.4297 7.50995Z" stroke="#414042" stroke-width="1.25" stroke-miterlimit="10" stroke-linecap="round" stroke-linejoin="round"/>
</g>
<defs>
<clipPath id="clip0_1412_520">
<rect width="27" height="27" fill="white"/>
</clipPath>
</defs>
</svg>
