<svg width="27" height="27" viewBox="0 0 27 27" fill="none" xmlns="http://www.w3.org/2000/svg">
<g clip-path="url(#clip0_1412_517)">
<path d="M10.214 26.0166C9.85873 26.0166 9.50347 25.7483 9.50347 25.3013V14.2152C9.50347 13.8576 9.23702 13.5 8.79294 13.5H6.92781C6.57255 13.5 6.21729 13.2318 6.21729 12.7848V10.1027C6.21729 9.74504 6.48373 9.38742 6.92781 9.38742H8.70413C9.05939 9.38742 9.41465 9.11921 9.41465 8.67219V4.64901C9.32584 2.59272 11.5462 0.983447 13.3225 0.894043C14.6548 0.894043 17.2304 0.894043 18.4739 0.894043C18.8291 0.894043 19.1844 1.25166 19.1844 1.60927V4.20199C19.1844 4.55961 18.9179 4.91722 18.4739 4.91722H16.4311C15.2765 4.91722 14.3883 5.81126 14.3883 6.97351V8.76159C14.3883 9.11921 14.6548 9.47683 15.0989 9.47683H17.7633C18.1186 9.47683 18.4739 9.74504 18.4739 10.1921V12.9636C18.4739 13.3212 18.2074 13.6788 17.7633 13.6788H15.2765C14.9212 13.6788 14.566 13.947 14.566 14.394V25.4801" stroke="#414042" stroke-width="2" stroke-miterlimit="10" stroke-linecap="round" stroke-linejoin="round"/>
</g>
<defs>
<clipPath id="clip0_1412_517">
<rect width="27" height="27" fill="white"/>
</clipPath>
</defs>
</svg>
