<?xml version="1.0" standalone="no"?>
<!DOCTYPE svg PUBLIC "-//W3C//DTD SVG 20010904//EN"
 "http://www.w3.org/TR/2001/REC-SVG-20010904/DTD/svg10.dtd">
<svg version="1.0" xmlns="http://www.w3.org/2000/svg"
 width="1024.000000pt" height="1024.000000pt" viewBox="0 0 1024.000000 1024.000000"
 preserveAspectRatio="xMidYMid meet">
<metadata>
Created by potrace 1.14, written by Peter Selinger 2001-2017
</metadata>
<g transform="translate(0.000000,1024.000000) scale(0.100000,-0.100000)"
fill="#000000" stroke="none">
<path d="M4677 10224 c-1 -1 -31 -5 -67 -8 -269 -27 -547 -196 -712 -435 -57
-82 -119 -215 -142 -305 -9 -32 -17 -61 -19 -62 -2 -2 -473 -4 -1048 -5 -845
-1 -1059 -4 -1124 -15 -181 -32 -367 -112 -515 -222 -82 -61 -209 -186 -237
-233 -10 -16 -21 -29 -25 -29 -4 0 -8 -6 -8 -14 0 -8 -4 -16 -8 -18 -10 -4
-54 -81 -92 -156 -28 -57 -74 -191 -84 -247 -4 -16 -9 -41 -12 -55 -13 -64
-17 -161 -17 -495 0 -292 4 -378 17 -455 44 -249 152 -456 336 -641 210 -213
467 -328 785 -353 28 -2 52 -5 55 -5 3 -1 6 -255 6 -566 0 -507 -2 -565 -15
-559 -37 15 -132 43 -172 50 -24 5 -183 8 -354 8 -289 0 -315 -2 -388 -22
-242 -69 -426 -244 -500 -477 -27 -86 -29 -112 -32 -444 -2 -306 -3 -324 -21
-333 -57 -30 -93 -63 -114 -106 l-24 -47 0 -1405 c-1 -773 2 -1430 5 -1460 36
-309 140 -532 343 -736 141 -141 283 -231 461 -292 104 -35 141 -44 261 -60
33 -4 1803 -7 3934 -6 l3875 1 104 22 c525 111 901 526 958 1056 3 33 6 695 6
1470 l0 1410 -23 49 c-25 52 -94 106 -137 106 -13 0 -23 6 -24 13 -1 6 -2 260
-3 562 l-1 550 -28 47 c-18 31 -44 57 -75 75 l-47 28 -360 1 c-204 1 -381 -2
-408 -8 -58 -12 -113 -56 -138 -113 -15 -31 -19 -65 -19 -156 l0 -115 -177 0
-178 1 -1 720 c0 396 2 725 4 731 2 7 18 11 35 11 222 -3 501 98 704 255 137
105 284 296 355 459 88 205 100 295 102 729 1 396 -4 468 -50 629 -85 302
-309 575 -595 726 -49 25 -96 48 -106 50 -10 3 -51 16 -90 30 -63 21 -161 42
-243 50 -14 2 -490 3 -1057 4 l-1033 1 -6 28 c-24 111 -99 274 -167 363 -177
236 -398 369 -687 415 -37 6 -957 13 -963 8z m998 -434 c124 -40 215 -99 292
-192 42 -50 103 -156 103 -178 0 -7 -306 -10 -950 -10 -757 0 -950 3 -950 13
0 6 12 35 26 62 91 173 255 291 449 322 28 5 255 8 505 7 441 -1 457 -2 525
-24z"/>
</g>
</svg>
