<svg width="32" height="32" viewBox="0 0 32 32" fill="none" xmlns="http://www.w3.org/2000/svg">
<path d="M25.6662 7.53302C25.1077 6.95645 24.4446 6.49907 23.7147 6.18702C22.9849 5.87497 22.2026 5.71436 21.4125 5.71436C20.6225 5.71436 19.8402 5.87497 19.1104 6.18702C18.3805 6.49907 17.7174 6.95645 17.1589 7.53302L15.9998 8.72904L14.8407 7.53302C13.7126 6.36893 12.1825 5.71496 10.5871 5.71496C8.99166 5.71496 7.46158 6.36893 6.33345 7.53302C5.20531 8.6971 4.57153 10.2759 4.57153 11.9222C4.57153 13.5685 5.20531 15.1473 6.33345 16.3114L7.49254 17.5074L15.9998 26.2858L24.5071 17.5074L25.6662 16.3114C26.2249 15.7351 26.6682 15.0508 26.9706 14.2977C27.273 13.5446 27.4287 12.7374 27.4287 11.9222C27.4287 11.107 27.273 10.2998 26.9706 9.54668C26.6682 8.79357 26.2249 8.10932 25.6662 7.53302V7.53302Z" fill="#EF5DA8" stroke="#EF5DA8" stroke-linecap="round" stroke-linejoin="round"/>
</svg>
