<svg id="Camada_1" data-name="Camada 1" xmlns="http://www.w3.org/2000/svg" viewBox="0 0 311 391"><defs><style>.cls-1{fill:#ffafb1;}.cls-2{fill:#53dbae;}.cls-3{fill:#333;}.cls-4{fill:#fff;}</style></defs><polyline class="cls-1" points="107.71 70.79 107.71 237.34 264.55 237.34 264.55 34.68 106.59 34.68"/><path class="cls-2" d="M164.12,310.29H118.5c-38.46,0-41.79-37.17-32.71-55.41.9,8.61,3.86,23.42,15.35,31.71,18.47,13.31,33.73-1.85,110.16,6.34q-9,11.35-18,22.7L166.57,329C179.25,325,173.69,310.29,164.12,310.29Z"/><path class="cls-3" d="M280,104.7V31.22A19.54,19.54,0,0,0,260.43,11.7H196c-7.74,0-7.74-11.7,0-11.7h64.42a31.26,31.26,0,0,1,31.23,31.22V104.7C291.66,112.43,280,112.44,280,104.7Z"/><path class="cls-3" d="M260.43,300.12H111.83A31.26,31.26,0,0,1,80.6,268.9V58.52c0-7.73,11.71-7.74,11.71,0V268.9a19.54,19.54,0,0,0,19.52,19.52h148.6A19.54,19.54,0,0,0,280,268.9V223.13c0-7.73,11.71-7.74,11.71,0V268.9A31.26,31.26,0,0,1,260.43,300.12Z"/><path class="cls-3" d="M136.84,350c-5.46-7.56,8.31-12.75,21.66-18.25,16.86-6.94,36-14.81,48.84-36.25,4-6.66,14-.58,10,6-21.18,35.3-57.28,38.91-72.36,49.8A5.84,5.84,0,0,1,136.84,350Z"/><path class="cls-3" d="M36.28,268.46c2.17-11.07-6.49-38.25-10.65-51.32-5.34-16.74-6.42-22.73,8.45-59.62,8-19.75,17-42.13,17.24-67.27.14-13.94,9.73-21.77,19.13-22.31,18.91-1.11,28.36,26.71,16.74,28.17A5.89,5.89,0,0,1,80.65,91C78.59,74.55,63.15,77.22,63,90.37c-.27,27.34-9.74,50.82-18.09,71.53-14.41,35.76-12.23,38.88-8.15,51.69,6.64,20.86,13.51,44.19,11,57.12C46.28,278.29,34.79,276.05,36.28,268.46Z"/><path class="cls-3" d="M266.94,206a20.57,20.57,0,0,1,20.08-21l3.55-.08a20.8,20.8,0,0,1,.92,41.59h0l-3.54.08A20.54,20.54,0,0,1,266.94,206Zm24.42,14.65h0Zm-.53-24-3.55.08c-8.21.18-11.48,10.39-5.9,15.73,4.64,4.43,18.74,4,18.49-7.16A8.85,8.85,0,0,0,290.83,196.56Z"/><path class="cls-3" d="M266.85,171.87a20.57,20.57,0,0,1,20.08-21l3.55-.08c10.84-.29,20.72,8,21,20.59a20.58,20.58,0,0,1-20.09,21h0l-3.54.08A20.54,20.54,0,0,1,266.85,171.87Zm24.42,14.65h0Zm-.53-24-3.55.08c-8.2.18-11.49,10.38-5.89,15.73,4.69,4.49,18.73,3.86,18.48-7.16A8.85,8.85,0,0,0,290.74,162.48Z"/><path class="cls-3" d="M286.84,116.78l3.55-.08c18.54-.5,27.8,22.17,15.3,35.24a20.41,20.41,0,0,1-14.38,6.35h0C257.66,159,261,117.36,286.84,116.78Zm4.34,35.66h0Zm-10.26-21.22c-5.18,5.42-2,15.39,6.59,15.46,3.56-.08,6.74.29,9.73-2.83a8.84,8.84,0,0,0,2.45-6.8C299.47,127.06,285.69,126.24,280.92,131.22Z"/><path class="cls-3" d="M114.71,380.77l13.07-12.1L41.26,275.3l-31,27.57c-5.78,5.13-13.56-3.6-7.77-8.74l35.32-31.39a5.85,5.85,0,0,1,8.17.4C147.68,372.93,142,365.7,141.89,369.2c-.12,3.23-.51,2.81-19.23,20.16C117,394.61,109,386,114.71,380.77Z"/><path class="cls-3" d="M43.43,317.83c-11.58,7-22.17-10.53-10.57-17.53S55,310.84,43.43,317.83Z"/><path class="cls-3" d="M195.92,270.1c-11.58,7-22.17-10.54-10.57-17.53S207.52,263.1,195.92,270.1Z"/><path class="cls-4" d="M236.75,103.54H184.68c-7.73,0-7.74-11.71,0-11.71h52.07C244.48,91.83,244.49,103.54,236.75,103.54Z"/><path class="cls-4" d="M217,126.68h-32.3c-7.73,0-7.74-11.7,0-11.7H217C224.72,115,224.73,126.68,217,126.68Z"/><path class="cls-3" d="M194.8,167.18H132.6c-7.73,0-7.74-11.7,0-11.7h62.2C202.53,155.48,202.54,167.18,194.8,167.18Z"/><path class="cls-3" d="M162.26,190.33H132.6c-7.73,0-7.74-11.7,0-11.7h29.66C170,178.63,170,190.33,162.26,190.33Z"/><path class="cls-3" d="M195.77,190.33H181.11c-7.73,0-7.74-11.7,0-11.7h14.66C203.5,178.63,203.51,190.33,195.77,190.33Z"/><path class="cls-3" d="M194.8,215.06H132.6c-7.73,0-7.74-11.7,0-11.7h62.2C202.53,203.36,202.54,215.06,194.8,215.06Z"/><path class="cls-3" d="M92.31,104.7V31.22A19.54,19.54,0,0,1,111.83,11.7h93.36c7.73,0,7.74-11.7,0-11.7H111.83A31.26,31.26,0,0,0,80.6,31.22V104.7C80.6,112.43,92.31,112.44,92.31,104.7Z"/></svg>