<svg width="47" height="43" viewBox="0 0 47 43" fill="none" xmlns="http://www.w3.org/2000/svg">
<path d="M29.8241 10.4375H25.0857C24.8412 10.4375 24.6067 10.5346 24.4338 10.7075C24.2609 10.8804 24.1638 11.1149 24.1638 11.3594C24.1638 11.6039 24.2609 11.8384 24.4338 12.0112C24.6067 12.1841 24.8412 12.2812 25.0857 12.2812H29.8241C30.0686 12.2812 30.3031 12.1841 30.476 12.0112C30.6489 11.8384 30.746 11.6039 30.746 11.3594C30.746 11.1149 30.6489 10.8804 30.476 10.7075C30.3031 10.5346 30.0686 10.4375 29.8241 10.4375Z" fill="#404852"/>
<path d="M29.8241 15.5078H26.6528C26.4083 15.5078 26.1739 15.6049 26.001 15.7778C25.8281 15.9507 25.731 16.1852 25.731 16.4297C25.731 16.6742 25.8281 16.9087 26.001 17.0816C26.1739 17.2544 26.4083 17.3516 26.6528 17.3516H29.8241C30.0686 17.3516 30.3031 17.2544 30.4759 17.0816C30.6488 16.9087 30.746 16.6742 30.746 16.4297C30.746 16.1852 30.6488 15.9507 30.4759 15.7778C30.3031 15.6049 30.0686 15.5078 29.8241 15.5078Z" fill="#404852"/>
<path d="M6.11353 7.21094H12.4376C12.6821 7.21094 12.9166 7.11381 13.0895 6.94093C13.2623 6.76804 13.3595 6.53356 13.3595 6.28906C13.3595 6.04457 13.2623 5.81008 13.0895 5.6372C12.9166 5.46431 12.6821 5.36719 12.4376 5.36719H6.11353C5.86903 5.36719 5.63455 5.46431 5.46166 5.6372C5.28878 5.81008 5.19165 6.04457 5.19165 6.28906C5.19165 6.53356 5.28878 6.76804 5.46166 6.94093C5.63455 7.11381 5.86903 7.21094 6.11353 7.21094Z" fill="#404852"/>
<path d="M6.11353 12.2812H20.3473C20.5918 12.2812 20.8263 12.1841 20.9991 12.0112C21.172 11.8384 21.2691 11.6039 21.2691 11.3594C21.2691 11.1149 21.172 10.8804 20.9991 10.7075C20.8263 10.5346 20.5918 10.4375 20.3473 10.4375H6.11353C5.86903 10.4375 5.63455 10.5346 5.46166 10.7075C5.28878 10.8804 5.19165 11.1149 5.19165 11.3594C5.19165 11.6039 5.28878 11.8384 5.46166 12.0112C5.63455 12.1841 5.86903 12.2812 6.11353 12.2812Z" fill="#404852"/>
<path d="M23.5001 15.5078H6.11353C5.86903 15.5078 5.63455 15.6049 5.46166 15.7778C5.28878 15.9507 5.19165 16.1852 5.19165 16.4297C5.19165 16.6742 5.28878 16.9087 5.46166 17.0816C5.63455 17.2544 5.86903 17.3516 6.11353 17.3516H23.5001C23.7446 17.3516 23.9791 17.2544 24.152 17.0816C24.3248 16.9087 24.422 16.6742 24.422 16.4297C24.422 16.1852 24.3248 15.9507 24.152 15.7778C23.9791 15.6049 23.7446 15.5078 23.5001 15.5078Z" fill="#404852"/>
<path d="M29.8241 5.36719H15.5903C15.3458 5.36719 15.1114 5.46431 14.9385 5.6372C14.7656 5.81008 14.6685 6.04457 14.6685 6.28906C14.6685 6.53356 14.7656 6.76804 14.9385 6.94093C15.1114 7.11381 15.3458 7.21094 15.5903 7.21094H29.8241C30.0686 7.21094 30.3031 7.11381 30.4759 6.94093C30.6488 6.76804 30.746 6.53356 30.746 6.28906C30.746 6.04457 30.6488 5.81008 30.4759 5.6372C30.3031 5.46431 30.0686 5.36719 29.8241 5.36719Z" fill="#404852"/>
<path d="M45.625 7.06344H35.4844V1.21875C35.4844 0.974254 35.3872 0.739771 35.2144 0.566886C35.0415 0.394001 34.807 0.296875 34.5625 0.296875H1.375C1.13198 0.301595 0.900231 0.400237 0.728359 0.572109C0.556486 0.743982 0.457845 0.975731 0.453125 1.21875V21.5C0.453125 21.7445 0.550251 21.979 0.723136 22.1519C0.896021 22.3247 1.1305 22.4219 1.375 22.4219H6.50063L3.64281 33.2631C3.58799 33.4625 3.60182 33.6746 3.68208 33.8652C3.76234 34.0558 3.90436 34.2139 4.08531 34.3141C4.22202 34.3853 4.37365 34.4232 4.52781 34.4247C4.65543 34.4234 4.78151 34.3966 4.89866 34.346C5.0158 34.2953 5.12165 34.2218 5.21 34.1297L14.6684 23.86V29.9444C14.6684 30.1889 14.7656 30.4234 14.9384 30.5962C15.1113 30.7691 15.3458 30.8662 15.5903 30.8662H29.3816L38.6003 42.3528C38.687 42.4605 38.7965 42.5477 38.9207 42.6082C39.045 42.6688 39.1811 42.7012 39.3194 42.7031C39.4655 42.7012 39.6097 42.6698 39.7434 42.6109C39.934 42.5157 40.0848 42.3561 40.1692 42.1604C40.2535 41.9647 40.266 41.7455 40.2044 41.5416L37.365 30.8662H45.625C45.8695 30.8662 46.104 30.7691 46.2769 30.5962C46.4497 30.4234 46.5469 30.1889 46.5469 29.9444V7.98531C46.5469 7.74082 46.4497 7.50633 46.2769 7.33345C46.104 7.16056 45.8695 7.06344 45.625 7.06344ZM15.24 20.6519C15.1468 20.7026 15.0601 20.7646 14.9819 20.8363L6.42687 30.055L8.63937 21.6475C8.68008 21.5111 8.68797 21.367 8.66241 21.2269C8.63685 21.0869 8.57856 20.9549 8.49228 20.8416C8.40601 20.7284 8.2942 20.6372 8.16596 20.5754C8.03773 20.5135 7.8967 20.4829 7.75437 20.4859H2.29688V2.14062H33.6406V20.5781H15.5903C15.4702 20.5828 15.3518 20.6078 15.24 20.6519ZM44.74 29.0225H36.1481C36.0055 29.0252 35.8653 29.0597 35.7377 29.1235C35.6101 29.1873 35.4984 29.2788 35.4106 29.3913C35.3256 29.5027 35.2666 29.6317 35.2379 29.7689C35.2092 29.906 35.2115 30.0479 35.2447 30.1841L37.2728 37.7803L30.5431 29.3728C30.4564 29.2652 30.347 29.1779 30.2227 29.1174C30.0984 29.0568 29.9623 29.0244 29.8241 29.0225H16.5122V22.4219H34.5625C34.807 22.4219 35.0415 22.3247 35.2144 22.1519C35.3872 21.979 35.4844 21.7445 35.4844 21.5V8.90719H44.7031L44.74 29.0225Z" fill="#404852"/>
</svg>
