<svg id="Camada_1" data-name="Camada 1" xmlns="http://www.w3.org/2000/svg" viewBox="0 0 380 394"><defs><style>.cls-1{fill:#ffafb1;}.cls-2{fill:#53dbae;}.cls-3{fill:#333;}</style></defs><path class="cls-1" d="M296.05,53.84C317.28,75,330.22,103,330.22,133.76c0,64-55.91,116.1-126,118.9l-.75,4.12a132.69,132.69,0,0,0,48.42,9c67.19,0,121.66-49.13,121.66-109.74C373.52,109.54,341.39,69.79,296.05,53.84Z"/><path class="cls-2" d="M242.09,179.81c-43.75,94.92-108.42,86.91-116.57,85.1-52.76-11.72-92.24-59.32-92.24-116.27,0-65.74,52.63-119,117.54-119a116.14,116.14,0,0,1,74.61,27.06C251.64,78.49,258.23,144.82,242.09,179.81Z"/><path class="cls-3" d="M128.14,271.4C57.64,271.4.29,210.49.29,135.62S57.64-.15,128.14-.15,256,60.76,256,135.62,198.64,271.4,128.14,271.4Zm0-260.39C64.46,11,12.66,66.91,12.66,135.62s51.8,124.62,115.48,124.62,115.47-55.91,115.47-124.62S191.81,11,128.14,11Z"/><path class="cls-3" d="M150.82,308.6H105.46a6.46,6.46,0,0,1-4.83-2.09,5.14,5.14,0,0,1-1.21-4.7l8.25-33.48a6.2,6.2,0,0,1,7.37-4.24c3.34.67,5.44,3.65,4.7,6.66l-6.57,26.69h29.94l-6.57-26.69c-.75-3,1.36-6,4.69-6.66a6.22,6.22,0,0,1,7.38,4.24l8.25,33.48a5.2,5.2,0,0,1-1.21,4.7A6.48,6.48,0,0,1,150.82,308.6Z"/><path class="cls-3" d="M130.2,360.68c-3.41,0-6.19-2.5-6.19-5.58V306.74c0-3.08,2.78-5.58,6.19-5.58s6.19,2.5,6.19,5.58V355.1C136.39,358.18,133.62,360.68,130.2,360.68Z"/><path class="cls-3" d="M253.92,394.15c-3.41,0-6.18-2.5-6.18-5.58V306.74c0-3.08,2.77-5.58,6.18-5.58s6.19,2.5,6.19,5.58v81.83C260.11,391.65,257.34,394.15,253.92,394.15Z"/><path class="cls-3" d="M274.54,308.6H229.18a6.48,6.48,0,0,1-4.83-2.09,5.2,5.2,0,0,1-1.21-4.7l8.25-33.48a6.2,6.2,0,0,1,7.38-4.24c3.33.67,5.44,3.65,4.69,6.66l-6.57,26.69h29.94l-6.57-26.69c-.74-3,1.36-6,4.7-6.66a6.21,6.21,0,0,1,7.37,4.24l8.25,33.48a5.14,5.14,0,0,1-1.21,4.7A6.46,6.46,0,0,1,274.54,308.6Z"/><path class="cls-3" d="M162,233.93a6.31,6.31,0,0,1-5.47-3,5.32,5.32,0,0,1,2.58-7.54c19.46-9.27,35.59-27.46,44.26-49.9a6.38,6.38,0,0,1,7.87-3.43c3.23,1,4.94,4.19,3.81,7.1-9.83,25.45-27.64,45.37-50.17,56.1A6.64,6.64,0,0,1,162,233.93Z"/><path class="cls-3" d="M215.05,159.73a6.42,6.42,0,0,1-1-.07c-3.37-.48-5.67-3.33-5.14-6.38a114.4,114.4,0,0,0,1.68-19.52c0-3.08,2.77-5.58,6.19-5.58s6.18,2.5,6.18,5.58A123.62,123.62,0,0,1,221.16,155,6,6,0,0,1,215.05,159.73Z"/><path class="cls-3" d="M251.86,271.4A139,139,0,0,1,201,261.9a5.39,5.39,0,0,1-3.21-7.34,6.48,6.48,0,0,1,8.14-2.9,125.45,125.45,0,0,0,46,8.58c63.68,0,115.48-46.73,115.48-104.16S315.54,51.92,251.86,51.92c-3.28,0-6.6.13-9.86.38-3.42.17-6.4-2-6.69-5.09s2.24-5.77,5.64-6c3.61-.27,7.28-.42,10.91-.42,70.5,0,127.85,51.73,127.85,115.32S322.36,271.4,251.86,271.4Z"/></svg>