<svg id="Camada_1" data-name="Camada 1" xmlns="http://www.w3.org/2000/svg" viewBox="0 0 393 382"><defs><style>.cls-1{fill:#ffafb1;}.cls-2{fill:#53dbae;}.cls-3{fill:#333;}</style></defs><path class="cls-1" d="M108.69,184.92c-18.13,8.59-38.75,2.73-49.65-22.26L3.41,374.28H62.75l10.33-11.12Z"/><path class="cls-1" d="M227.81,189.9c-11.71.28-22.75-6.23-33.11-19.69C183.84,182,173.27,188.59,163,189.9l-19.48,97.52,52.75-56.74,50.19,52.53Z"/><path class="cls-1" d="M337.18,158.88c-7.48,28-35.06,35.37-54.44,29.21l33.62,168.27,17.12,17.92H385.4Z"/><path class="cls-1" d="M194.43,11.5l43.89,136h93.3c-56.79-36.33-115-96.8-137.22-142.14C172.15,50.74,116.52,111.21,59.74,147.54h90.8Z"/><polygon class="cls-2" points="125.8 374.28 266.72 374.28 196.26 230.68 125.8 374.28"/><path class="cls-2" d="M94.27,189.11c-17.41,0-31.52-14.38-31.52-32.12v-5.67H125.8V157C125.8,174.73,111.68,189.11,94.27,189.11Z"/><path class="cls-2" d="M227.78,189.11c-17.41,0-31.52-14.38-31.52-32.12v-5.67h63V157C259.3,174.73,245.19,189.11,227.78,189.11Z"/><path class="cls-3" d="M388.47,381.84H5.53c-2.81,0-5.08-2.54-5.08-5.67s2.27-5.67,5.08-5.67H388.47c2.81,0,5.08,2.54,5.08,5.67S391.28,381.84,388.47,381.84Z"/><path class="cls-3" d="M387.18,378.06a5.59,5.59,0,0,1-5.4-4.33l-52-218.63h-267L18.6,340.66a5.56,5.56,0,0,1-6.72,4.17A5.68,5.68,0,0,1,7.78,338L53,148.1a5.58,5.58,0,0,1,5.41-4.34h275.8a5.59,5.59,0,0,1,5.41,4.34l53,223a5.67,5.67,0,0,1-4.09,6.85A5.42,5.42,0,0,1,387.18,378.06Z"/><path class="cls-3" d="M331.62,153.64a5.45,5.45,0,0,1-3-.87c-53.94-34.5-108.58-89.77-134.24-135-26,46.39-79.7,101.71-131.72,135A5.5,5.5,0,0,1,55,151a5.73,5.73,0,0,1,1.75-7.82C110.85,108.58,166.63,49.76,189.43,3.29a5.52,5.52,0,0,1,9.95,0c21.76,44.36,79.89,104.5,135.2,139.88a5.73,5.73,0,0,1,1.75,7.82A5.53,5.53,0,0,1,331.62,153.64Z"/><path class="cls-3" d="M94.27,196.67c-21.47,0-38.94-17.8-38.94-39.68v-7.56a5.62,5.62,0,0,1,5.57-5.67h66.75a5.62,5.62,0,0,1,5.56,5.67V157C133.21,178.87,115.75,196.67,94.27,196.67ZM66.46,155.1V157c0,15.63,12.48,28.34,27.81,28.34s27.82-12.71,27.82-28.34V155.1Z"/><path class="cls-3" d="M161,196.67a38.46,38.46,0,0,1-19.56-5.36,5.72,5.72,0,0,1-2-7.75,5.5,5.5,0,0,1,7.6-2.06,27.36,27.36,0,0,0,14,3.83c15.33,0,27.81-12.71,27.81-28.34V155.1H127.65a5.67,5.67,0,0,1,0-11.34H194.4a5.62,5.62,0,0,1,5.57,5.67V157C200,178.87,182.5,196.67,161,196.67Z"/><path class="cls-3" d="M227.78,196.67c-21.47,0-38.94-17.8-38.94-39.68v-7.56a5.62,5.62,0,0,1,5.56-5.67h66.76a5.62,5.62,0,0,1,5.56,5.67V157C266.72,178.87,249.25,196.67,227.78,196.67ZM200,155.1V157c0,15.63,12.47,28.34,27.81,28.34S255.6,172.62,255.6,157V155.1Z"/><path class="cls-3" d="M298.24,196.67a38.49,38.49,0,0,1-25.3-9.52,5.75,5.75,0,0,1-.61-8,5.49,5.49,0,0,1,7.85-.62,27.49,27.49,0,0,0,18.06,6.79c15.34,0,27.82-12.71,27.82-28.34V155.1H264.87a5.67,5.67,0,0,1,0-11.34h66.75a5.62,5.62,0,0,1,5.56,5.67V157C337.18,178.87,319.72,196.67,298.24,196.67Z"/><path class="cls-3" d="M127.65,378.06a5.34,5.34,0,0,1-2.38-.55,5.72,5.72,0,0,1-2.65-7.55l66.76-143.6a5.5,5.5,0,0,1,7.41-2.69,5.72,5.72,0,0,1,2.64,7.55l-66.75,143.6A5.56,5.56,0,0,1,127.65,378.06Z"/><path class="cls-3" d="M264.87,378.06a5.55,5.55,0,0,1-5-3.13l-36.32-74a5.73,5.73,0,0,1,2.49-7.61,5.52,5.52,0,0,1,7.46,2.54l36.32,74a5.71,5.71,0,0,1-2.49,7.6A5.4,5.4,0,0,1,264.87,378.06Z"/><path class="cls-3" d="M331.62,381.84a5.47,5.47,0,0,1-4-1.77L190.37,232.69a5.72,5.72,0,0,1,.21-8,5.47,5.47,0,0,1,7.86.21L335.66,372.27a5.74,5.74,0,0,1-.21,8A5.5,5.5,0,0,1,331.62,381.84Z"/><path class="cls-3" d="M60.9,381.84a5.51,5.51,0,0,1-3.78-1.5,5.76,5.76,0,0,1-.31-8L190.32,224.94a5.5,5.5,0,0,1,7.86-.32,5.76,5.76,0,0,1,.31,8L65,380A5.48,5.48,0,0,1,60.9,381.84Z"/></svg>