<svg id="Camada_1" data-name="Camada 1" xmlns="http://www.w3.org/2000/svg" viewBox="0 0 395 391"><defs><style>.cls-1{fill:#ffafb1;}.cls-2{fill:#53dbae;}.cls-3{fill:#333;}</style></defs><rect class="cls-1" x="286.85" y="112.31" width="37.44" height="266.21"/><path class="cls-1" d="M171.88,16.09A54.21,54.21,0,0,0,95.22,92.76c21.17,21.17,93.09,16.42,93.09,16.42S193.05,37.26,171.88,16.09Zm-60.1,59c-9.83-10-11.56-30.86.44-41.85,9.33-8.54,27.09-15.18,41.87-.43,10.52,10.52,8.63,28.15,10.07,52.32C131.29,83.29,120.56,84,111.78,75.06Z"/><path class="cls-1" d="M211.16,109.18s71.92,4.75,93.09-16.42a54.21,54.21,0,0,0-76.66-76.67C206.42,37.26,211.16,109.18,211.16,109.18ZM235.31,85.1c1.44-24.17-.45-41.8,10.07-52.32,14.78-14.75,32.54-8.11,41.86.43,12,11,10.28,31.86.45,41.85C278.91,84,268.18,83.29,235.31,85.1Z"/><rect class="cls-1" x="170.38" y="62.39" width="54.07" height="49.92"/><rect class="cls-2" x="20.64" y="158.06" width="74.87" height="224.62"/><rect class="cls-2" x="8.16" y="112.31" width="70.71" height="41.6"/><rect class="cls-1" x="91.35" y="158.06" width="62.39" height="224.62"/><rect class="cls-1" x="83.03" y="112.31" width="58.23" height="41.6"/><path class="cls-3" d="M93.43,382.68a6.24,6.24,0,0,1-6.24-6.24V201.74a6.24,6.24,0,1,1,12.48,0v174.7A6.24,6.24,0,0,1,93.43,382.68Z"/><path class="cls-3" d="M93.43,183a6.24,6.24,0,0,1-6.24-6.24V160.14a6.24,6.24,0,1,1,12.48,0v16.64A6.25,6.25,0,0,1,93.43,183Z"/><path class="cls-3" d="M155.82,382.68a6.24,6.24,0,0,1-6.24-6.24V160.14a6.24,6.24,0,0,1,12.48,0v216.3A6.24,6.24,0,0,1,155.82,382.68Z"/><path class="cls-3" d="M376.8,391h-358c-3,0-5.53-2.79-5.53-6.24s2.48-6.24,5.53-6.24h358c3.05,0,5.53,2.8,5.53,6.24S379.85,391,376.8,391Z"/><path class="cls-3" d="M18.56,386.84a6.24,6.24,0,0,1-6.24-6.24V160.14a6.24,6.24,0,1,1,12.47,0V380.6A6.23,6.23,0,0,1,18.56,386.84Z"/><path class="cls-3" d="M143.34,158.06a6.24,6.24,0,0,1-6.24-6.24V118.55a6.24,6.24,0,0,1,12.48,0v33.27A6.24,6.24,0,0,1,143.34,158.06Z"/><path class="cls-3" d="M81,158.06a6.24,6.24,0,0,1-6.24-6.24V118.55a6.24,6.24,0,1,1,12.48,0v33.27A6.24,6.24,0,0,1,81,158.06Z"/><path class="cls-3" d="M376.28,386.84A6.24,6.24,0,0,1,370,380.6V160.14a6.24,6.24,0,0,1,12.48,0V380.6A6.24,6.24,0,0,1,376.28,386.84Z"/><path class="cls-3" d="M388.76,162.22H334.69a6.24,6.24,0,0,1,0-12.48h47.83V116.47H12.32v33.27H305.57a6.24,6.24,0,1,1,0,12.48H6.08A6.24,6.24,0,0,1-.16,156V110.23A6.24,6.24,0,0,1,6.08,104H388.76a6.24,6.24,0,0,1,6.24,6.24V156A6.24,6.24,0,0,1,388.76,162.22Z"/></svg>