<svg width="43" height="43" viewBox="0 0 43 43" fill="none" xmlns="http://www.w3.org/2000/svg">
<path d="M42.9842 10.3797C42.9846 10.2574 42.9487 10.1378 42.8811 10.0359L36.9686 0.428125C36.8903 0.302568 36.7814 0.198892 36.6522 0.126763C36.5229 0.0546341 36.3776 0.0164 36.2296 0.015625H6.77019C6.62219 0.0164 6.4768 0.0546341 6.34757 0.126763C6.21834 0.198892 6.10947 0.302568 6.03112 0.428125L0.135811 9.95C0.0686095 10.0456 0.0325925 10.1597 0.0326857 10.2766V14.2812C0.0234235 14.8278 0.154438 15.3675 0.413216 15.849C0.671994 16.3304 1.04989 16.7375 1.51081 17.0312V42.125C1.51081 42.3529 1.60135 42.5715 1.76252 42.7327C1.92368 42.8938 2.14227 42.9844 2.37019 42.9844H40.6467C40.8747 42.9844 41.0933 42.8938 41.2544 42.7327C41.4156 42.5715 41.5061 42.3529 41.5061 42.125V17.1344C41.9657 16.8433 42.3429 16.4393 42.6017 15.9608C42.8605 15.4823 42.9922 14.9455 42.9842 14.4016V10.3969V10.3797ZM7.25144 1.73438H35.7483L40.578 9.46875H2.42175L7.25144 1.73438ZM35.3702 11.1875V14.3328C35.4039 14.6878 35.2966 15.0419 35.0715 15.3184C34.8464 15.595 34.5215 15.7719 34.1671 15.8109H32.4483C31.7436 15.8109 31.4686 15.6047 31.3483 15.4328C31.2619 15.0729 31.2272 14.7025 31.2452 14.3328V11.1875H35.3702ZM29.4749 11.1875V14.3328C29.5086 14.6878 29.4013 15.0419 29.1762 15.3184C28.9511 15.595 28.6262 15.7719 28.2717 15.8109H26.553C25.6249 15.8109 25.5217 15.4328 25.4186 15.0719V14.9516C25.4186 14.7625 25.4186 14.5391 25.4186 14.3328V11.1875H29.4749ZM23.5796 11.1875V14.3328C23.6133 14.6878 23.506 15.0419 23.2809 15.3184C23.0558 15.595 22.7309 15.7719 22.3764 15.8109H20.6577C20.3032 15.7719 19.9783 15.595 19.7532 15.3184C19.5281 15.0419 19.4208 14.6878 19.4546 14.3328V11.1875H23.5796ZM17.7014 11.1875V14.3328C17.7307 14.6869 17.6218 15.0386 17.3975 15.3141C17.1732 15.5897 16.851 15.7677 16.4983 15.8109H14.7796C14.4251 15.7719 14.1002 15.595 13.8751 15.3184C13.65 15.0419 13.5427 14.6878 13.5764 14.3328V11.1875H17.7014ZM11.8061 12.5625V14.2812C11.8084 14.514 11.7586 14.7444 11.6605 14.9555C11.5624 15.1666 11.4183 15.3532 11.2389 15.5016C11.0464 15.6294 10.8302 15.7171 10.603 15.7594H8.88425C8.52978 15.7203 8.2049 15.5434 7.97978 15.2669C7.75466 14.9903 7.64738 14.6363 7.68112 14.2812V11.1875H11.8577L11.8061 12.5625ZM2.83425 15.8453C2.50682 15.7793 2.21461 15.5964 2.01218 15.3307C1.80976 15.065 1.71096 14.7348 1.73425 14.4016V11.1875H5.91081V14.3328C5.91627 14.5619 5.8696 14.7893 5.77432 14.9977C5.67904 15.2061 5.53764 15.3902 5.36081 15.5359C4.87465 15.7502 4.34414 15.8445 3.81394 15.8109H3.02331L2.83425 15.8453ZM17.5639 41.2656H9.10769V25.5391H17.7014L17.5639 41.2656ZM39.7874 41.2656H19.2827L19.4202 24.6797C19.4127 24.4489 19.321 24.2288 19.1624 24.0609C19.0009 23.9053 18.785 23.819 18.5608 23.8203H8.24831C8.02039 23.8203 7.80181 23.9109 7.64064 24.072C7.47948 24.2332 7.38894 24.4518 7.38894 24.6797V41.2656H3.21237V17.5984H4.70769C5.34069 17.5796 5.94779 17.3428 6.42644 16.9281C6.49322 16.8943 6.55654 16.854 6.6155 16.8078C6.90036 17.0848 7.24056 17.2984 7.61378 17.4347C7.98701 17.5709 8.38482 17.6267 8.78112 17.5984H10.4999C11.1324 17.5931 11.7422 17.3614 12.2186 16.9453C12.3049 16.904 12.3858 16.852 12.4592 16.7906C13.049 17.3194 13.8156 17.6077 14.6077 17.5984H16.3264C16.5595 17.599 16.7913 17.5643 17.0139 17.4953C17.51 17.426 17.9819 17.2373 18.3889 16.9453C18.7879 17.2403 19.255 17.4295 19.7467 17.4953C19.9749 17.5657 20.2126 17.6005 20.4514 17.5984H22.1702C22.4026 17.5906 22.6332 17.556 22.8577 17.4953C23.3237 17.4306 23.7633 17.2405 24.1296 16.9453C24.7394 17.4229 25.5055 17.6558 26.278 17.5984H27.9967C28.7215 17.6339 29.4367 17.4217 30.0249 16.9969C30.4296 17.3046 30.9113 17.4949 31.4171 17.5469C31.6516 17.5659 31.8872 17.5659 32.1217 17.5469H34.2186H34.7858C35.3321 17.4991 35.8578 17.316 36.3155 17.0141C36.5783 17.1684 36.8619 17.2842 37.1577 17.3578C37.511 17.5296 37.8992 17.6178 38.2921 17.6156H39.7874V41.2656ZM41.2655 14.4016C41.2881 14.7372 41.1869 15.0695 40.9811 15.3356C40.7752 15.6016 40.4789 15.783 40.1483 15.8453C40.0624 15.8453 39.9764 15.8453 40.0624 15.8453H39.1342C38.6836 15.8497 38.234 15.8036 37.7936 15.7078C37.5699 15.5647 37.3873 15.3659 37.2637 15.1308C37.1402 14.8958 37.0799 14.6326 37.0889 14.3672V11.1875H41.2655V14.4016Z" fill="#404852"/>
<path d="M34.7514 23.8203H23.0982C22.8733 23.8203 22.6572 23.9084 22.4966 24.0659C22.3359 24.2234 22.2434 24.4376 22.2389 24.6625L22.1185 32.5859C22.1125 32.7002 22.1309 32.8145 22.1724 32.9212C22.2138 33.0278 22.2775 33.1245 22.3592 33.2047C22.4385 33.2886 22.5346 33.3549 22.6412 33.3993C22.7478 33.4437 22.8625 33.4652 22.9779 33.4625H34.7514C34.9793 33.4625 35.1979 33.372 35.359 33.2108C35.5202 33.0496 35.6107 32.831 35.6107 32.6031V24.6797C35.6107 24.4518 35.5202 24.2332 35.359 24.072C35.1979 23.9109 34.9793 23.8203 34.7514 23.8203ZM33.892 31.8125H23.8545L23.9576 25.6078H33.892V31.8125Z" fill="#404852"/>
</svg>
