<svg id="Camada_1" data-name="Camada 1" xmlns="http://www.w3.org/2000/svg" viewBox="0 0 392 399"><defs><style>.cls-1{fill:#53dbae;}.cls-2{fill:#ffafb1;}.cls-3{fill:#333;}</style></defs><path class="cls-1" d="M65.44,239.68s8.16,24.48,53,16.32,65.28-24.48,89.76-24.48c36.72,0,69.36,20.4,93.84,20.4,20.4,0,28.56-8.16,28.56-8.16v40.8H65.44Z"/><path class="cls-2" d="M106.24,141.76s12.24,20.4,40.8,20.4c20.81,0,51.12-16.32,69.36-16.32,20.4,0,53,16.32,73.44,8.16v32.64H106.24Z"/><path class="cls-3" d="M386.42,398.8H5.58a6.15,6.15,0,0,1,0-12.24H386.42a6.15,6.15,0,0,1,0,12.24Z"/><path class="cls-3" d="M385.72,394.72a6.12,6.12,0,0,1-6.12-6.12V335.77a43.1,43.1,0,0,0-43.05-43H55.46a43.11,43.11,0,0,0-43.06,43V388.6a6.12,6.12,0,0,1-12.24,0V335.77a55.36,55.36,0,0,1,55.3-55.29H336.55a55.36,55.36,0,0,1,55.29,55.29V388.6A6.12,6.12,0,0,1,385.72,394.72Z"/><path class="cls-3" d="M332.68,288.64a6.12,6.12,0,0,1-6.12-6.12V237.85a43.1,43.1,0,0,0-43.05-43H112.58a43.11,43.11,0,0,0-43.06,43v44.67a6.12,6.12,0,0,1-12.24,0V237.85a55.36,55.36,0,0,1,55.3-55.29H283.51a55.36,55.36,0,0,1,55.29,55.29v44.67A6.12,6.12,0,0,1,332.68,288.64Z"/><path class="cls-3" d="M291.88,190.72a6.12,6.12,0,0,1-6.12-6.12V162a36.56,36.56,0,0,0-36.52-36.52H146.85A36.57,36.57,0,0,0,110.32,162V184.6a6.12,6.12,0,1,1-12.24,0V162a48.82,48.82,0,0,1,48.77-48.76H249.24A48.81,48.81,0,0,1,298,162V184.6A6.12,6.12,0,0,1,291.88,190.72Z"/><path class="cls-3" d="M198,117.28a6.12,6.12,0,0,1-6.12-6.12V66.28a6.12,6.12,0,0,1,12.24,0v44.88A6.12,6.12,0,0,1,198,117.28Z"/><path class="cls-3" d="M145,117.28a6.12,6.12,0,0,1-6.12-6.12V78.52a6.12,6.12,0,0,1,12.24,0v32.64A6.12,6.12,0,0,1,145,117.28Z"/><path class="cls-3" d="M251.08,117.28a6.12,6.12,0,0,1-6.12-6.12V78.52a6.12,6.12,0,1,1,12.24,0v32.64A6.12,6.12,0,0,1,251.08,117.28Z"/><path class="cls-2" d="M157.24,50c0,11.27-6.39,16.32-14.28,16.32S128.68,61.23,128.68,50,143,17.32,143,17.32,157.24,38.69,157.24,50Z"/><path class="cls-2" d="M263.32,50c0,11.27-6.39,16.32-14.28,16.32S234.76,61.23,234.76,50,249,17.32,249,17.32,263.32,38.69,263.32,50Z"/><path class="cls-2" d="M210.28,33.64C210.28,44.91,203.89,50,196,50s-14.28-5.05-14.28-16.32S196,1,196,1,210.28,22.37,210.28,33.64Z"/><circle class="cls-2" cx="61.36" cy="329.44" r="16.32"/><circle class="cls-2" cx="236.8" cy="329.44" r="16.32"/><circle class="cls-1" cx="151.12" cy="345.76" r="20.4"/><circle class="cls-1" cx="326.56" cy="345.76" r="20.4"/></svg>