<svg id="Camada_1" data-name="Camada 1" xmlns="http://www.w3.org/2000/svg" viewBox="0 0 392 300"><defs><style>.cls-1{fill:#53dbae;}.cls-2{fill:#ffafb1;}.cls-3{fill:#333;}</style></defs><path class="cls-1" d="M377.4,11,360.74,28.87l.23,239.2-330.62-.74-15,16.27a34.05,34.05,0,0,0,27,13.11l318.11-1.39a23.86,23.86,0,0,0,23.75-23.63L386.53,32A28.23,28.23,0,0,0,377.4,11Z"/><path class="cls-1" d="M6.83,34.72,181.29,215.27a21.53,21.53,0,0,0,30.91.07L386,37,379.54,8.6,211.22,190.17a18.2,18.2,0,0,1-26.51.21L10.4,8.05Z"/><path class="cls-2" d="M176.42,124.89c-43.67,6.63-69.55-46.44-39-77a45.41,45.41,0,0,1,49.82-9.8c7.86,3.31,2.86,15.21-5,11.9a32.54,32.54,0,1,0,18.14,19.36c-3-8.72,14.65-18,14.69,10.58A45.54,45.54,0,0,1,176.42,124.89Z"/><path class="cls-2" d="M202.77,112.54a6.46,6.46,0,0,1,8.58-3.13c21.39,9.93,46.25-5.66,46.21-29.58a32.54,32.54,0,1,0-62.5,12.74c3.34,7.86-8.55,12.93-11.89,5.06-12.68-29.88,9.32-63.16,41.8-63.21,40.09-.05,61,48.76,32.24,77.55C235.26,134,197,124.92,202.77,112.54Z"/><path class="cls-3" d="M368.44,299.38l-344.21.46A23.7,23.7,0,0,1,.52,276.19C.15,3.07-2.48,17.18,7.09,7.58a23.56,23.56,0,0,1,16.74-7L368,.16a23.67,23.67,0,0,1,23.71,23.65l.33,251.86A23.71,23.71,0,0,1,368.44,299.38ZM16.24,16.7c-4.55,4.57-3.17-12-2.81,259.47a10.78,10.78,0,0,0,10.78,10.75c371.93-.5,347.24,1,351.82-3.62a10.72,10.72,0,0,0,3.14-7.62c-.36-271.33,1.08-254.89-3.5-259.46S396.14,13,23.84,13.54A10.68,10.68,0,0,0,16.24,16.7Z"/><path class="cls-3" d="M196.82,205.65c-12.12.08-.16,8.93-188.7-187.93-5.9-6.16,3.42-15.1,9.33-8.93L191.51,190.53a7.16,7.16,0,0,0,10.41-.08L371.31,8.37c5.82-6.26,15.27,2.55,9.46,8.8C197.61,214,209,205.55,196.82,205.65Z"/><path class="cls-3" d="M8.43,281.8,114.76,168.06c5.82-6.23,15.27,2.58,9.43,8.82L17.86,290.62C12,296.86,2.6,288,8.43,281.8Z"/><path class="cls-3" d="M370.66,290.13,267,179.08c-5.84-6.26,3.63-15,9.44-8.82L380.1,281.32a6.46,6.46,0,1,1-9.44,8.81Z"/></svg>