<svg id="Camada_1" data-name="Camada 1" xmlns="http://www.w3.org/2000/svg" viewBox="0 0 392 358"><defs><style>.cls-1{fill:#53dbae;}.cls-2{fill:#ffafb1;}.cls-3{fill:#333;}</style></defs><path class="cls-1" d="M267.09,294.23c-.33,0-.63,0-1-.07,95.52-7.18,121.73-101,65.6-151.87-24.24-22-50.07-53.88-63.2-96.81A196.85,196.85,0,0,0,276,9.59a4.75,4.75,0,0,1,9.31,0c7,61.51,40.05,105,70.63,132.7C416.34,197.1,381.3,301.64,267.09,294.23Z"/><path class="cls-2" d="M186.71,199.53C156.13,171.79,123,128.34,116.08,66.82a4.52,4.52,0,0,0-4.65-3.8h0a4.53,4.53,0,0,0-4.65,3.8c-7,61.52-40,105-70.63,132.71-59.54,54-22.74,146.46,61.74,151.94C212.12,358.87,247.15,254.33,186.71,199.53Z"/><path class="cls-3" d="M360.49,138.23c-27.55-25-61.85-67.67-68.81-129.23-.58-5.12-5.34-9-11.06-9s-10.49,3.87-11.07,9c-7,61.56-41.26,104.25-68.79,129.23a94.9,94.9,0,0,0-26.66,40c-23.07-25.69-46-62.8-51.62-111.95-.58-5.12-5.33-9-11-9s-10.49,3.87-11.07,9c-7,61.56-41.25,104.25-68.8,129.23-29.77,27-39,65.85-24.12,101.36C44.67,385.57,195.19,374,219.25,286.4c48.13,26.61,133,17.21,162.67-40.54C400.41,209.88,391.81,166.63,360.49,138.23ZM201,298.25C169.8,359,51,367.91,19.49,292.77c-13.1-31.25-5-65.42,21.23-89.18C67.87,179,101.23,138,111.43,79.66c8.8,50.3,34.78,87.68,59.19,112.8C177.82,199.9,231.06,239.93,201,298.25ZM370.22,241C343.43,293.1,263.81,300.61,221.7,274.2c5.09-40.4-15.52-63.84-37.32-85.27,3.56-15.72,12.22-30.49,25.55-42.57,27.13-24.62,60.51-65.59,70.69-123.93,8.4,48,33.7,90.37,70.7,123.93C378.89,171.35,386.48,209.39,370.22,241Z"/></svg>