<svg id="Camada_1" data-name="Camada 1" xmlns="http://www.w3.org/2000/svg" viewBox="0 0 316 391"><defs><style>.cls-1{fill:#ffafb1;}.cls-2{fill:#333;}.cls-3{fill:#53dbae;}</style></defs><rect class="cls-1" x="3.16" y="241.39" width="89.67" height="83.27"/><path class="cls-2" d="M196.43,391.5H34.06c-1.15,0-2.08-2.15-2.08-4.8s.93-4.81,2.08-4.81H196.43c1.15,0,2.08,2.15,2.08,4.81S197.58,391.5,196.43,391.5Z"/><path class="cls-2" d="M87.1,61.17H56.46a12,12,0,0,1-12-11.87V32.59a12,12,0,0,1,12-11.87H87.1a12,12,0,0,1,12,11.87V49.3A12,12,0,0,1,87.1,61.17ZM56.46,30.84a1.77,1.77,0,0,0-1.78,1.75V49.3a1.77,1.77,0,0,0,1.78,1.76H87.1a1.77,1.77,0,0,0,1.78-1.76V32.59a1.77,1.77,0,0,0-1.78-1.75Z"/><path class="cls-2" d="M35.87,391.5H20.67A20.59,20.59,0,0,1,0,371.09V267.59c0-47.4,16.37-80.68,29.53-107.43,3.05-6.2,5.93-12,8.31-17.51,10.48-24.1,12.05-83.6,12.06-84.2a5.13,5.13,0,0,1,10.26.24c-.06,2.52-1.64,62.07-12.89,87.94-2.47,5.68-5.4,11.64-8.51,17.94-12.69,25.82-28.5,57.94-28.5,103v103.5a10.39,10.39,0,0,0,10.45,10.3h15.2a5.06,5.06,0,1,1,0,10.11Z"/><path class="cls-2" d="M93.7,106.61a5.1,5.1,0,0,1-5.09-4.48C86,79.89,85.47,58.9,85.46,58.69a5.13,5.13,0,0,1,10.26-.24c0,.2.53,20.75,3.08,42.52a5.06,5.06,0,0,1-4.51,5.6A3.9,3.9,0,0,1,93.7,106.61Z"/><path class="cls-3" d="M106,196v30.74c0,22.12,18.19,40,40.63,40h.83c22.44,0,40.63-17.92,40.63-40V196Z"/><path class="cls-3" d="M262.15,206.27l-4.87-17H172.86L184,228c6.08,21.28,28.53,33.67,50.13,27.67A40,40,0,0,0,262.15,206.27Z"/><path class="cls-2" d="M148.32,272.42c-25.23,0-45.76-20.23-45.76-45.1V126.9a5.1,5.1,0,0,1,5.13-5.06h30.79a5.06,5.06,0,1,1,0,10.12H112.82v95.36c0,19.29,15.93,35,35.5,35A35.46,35.46,0,0,0,181,240.94a5.17,5.17,0,0,1,6.73-2.69,5,5,0,0,1,2.73,6.63A45.74,45.74,0,0,1,148.32,272.42Z"/><path class="cls-2" d="M148.74,354.42a5.09,5.09,0,0,1-5.13-5.05v-80.9a5.13,5.13,0,0,1,10.26,0v80.9A5.09,5.09,0,0,1,148.74,354.42Z"/><path class="cls-2" d="M104.27,388.13a5.1,5.1,0,0,1-5.13-5.06,16.9,16.9,0,0,1,15-16.64c2.53-.3,4.85-.54,7-.76,15.57-1.62,18.38-1.91,22.67-16.07a5.14,5.14,0,0,1,6.39-3.39,5,5,0,0,1,3.44,6.29c-6.24,20.61-15.19,21.54-31.43,23.22-2.09.22-4.36.46-6.83.75a6.73,6.73,0,0,0-6,6.6A5.09,5.09,0,0,1,104.27,388.13Z"/><path class="cls-2" d="M193.2,388.13a5.1,5.1,0,0,1-5.13-5.06,6.72,6.72,0,0,0-6-6.6c-2.47-.29-4.74-.53-6.84-.75C159,374,150.07,373.11,143.82,352.5a5,5,0,0,1,3.45-6.29,5.13,5.13,0,0,1,6.38,3.39c4.29,14.16,7.1,14.45,22.68,16.07,2.14.22,4.47.46,7,.76a16.9,16.9,0,0,1,15,16.64A5.1,5.1,0,0,1,193.2,388.13Z"/><path class="cls-2" d="M223.07,262.24c-20,0-38.38-13-44.06-32.86l-27.66-96.65a5,5,0,0,1,3.55-6.24l78.21-21.74a5.2,5.2,0,0,1,3.9.46,5,5,0,0,1,2.42,3l27.66,96.65A44.21,44.21,0,0,1,263,239.17a45.4,45.4,0,0,1-27.51,21.37A46.26,46.26,0,0,1,223.07,262.24ZM162.62,134.85l26.26,91.78c5.32,18.56,25,29.41,43.8,24.18A35.16,35.16,0,0,0,254,234.23a34.34,34.34,0,0,0,3.2-26.59L231,115.86Z"/><path class="cls-2" d="M257,340.75a5.13,5.13,0,0,1-4.94-3.69L229.76,259.2A5,5,0,0,1,233.3,253a5.13,5.13,0,0,1,6.33,3.49l22.28,77.86a5,5,0,0,1-3.55,6.23A4.77,4.77,0,0,1,257,340.75Z"/><path class="cls-2" d="M223.46,385.08a5.12,5.12,0,0,1-4.94-3.68,16.73,16.73,0,0,1,9.87-20c2.34-1,4.51-1.82,6.51-2.61,14.55-5.72,17.17-6.75,17.4-21.53a5.18,5.18,0,0,1,5.21-5,5.08,5.08,0,0,1,5.05,5.13c-.34,21.51-8.69,24.8-23.85,30.76-2,.77-4.08,1.61-6.37,2.55a6.64,6.64,0,0,0-3.94,7.95,5,5,0,0,1-3.55,6.24A5.17,5.17,0,0,1,223.46,385.08Z"/><path class="cls-2" d="M248.66,389.46a5.21,5.21,0,0,1-4.9-6.94,4.23,4.23,0,0,1,2.8-2.75l58.07-20.38-.51-1.75a6.83,6.83,0,0,0-7.62-4.78c-2.44.38-4.67.75-6.74,1.11-16.1,2.71-25,4.21-36.66-14a5,5,0,0,1,1.59-7,5.18,5.18,0,0,1,7.08,1.56c8,12.49,10.82,12,26.26,9.4,2.12-.36,4.42-.75,6.93-1.13a17.07,17.07,0,0,1,19,12l1.85,6.35a5,5,0,0,1-3.27,6.18l-62.25,21.79A5.34,5.34,0,0,1,248.66,389.46Z"/><path class="cls-2" d="M87.17,24.09A5.09,5.09,0,0,1,82,19V10.61H61.52V19a5.13,5.13,0,0,1-10.26,0V5.56A5.09,5.09,0,0,1,56.39.5H87.17A5.09,5.09,0,0,1,92.3,5.56V19A5.09,5.09,0,0,1,87.17,24.09Z"/></svg>