<svg id="Camada_1" data-name="Camada 1" xmlns="http://www.w3.org/2000/svg" viewBox="0 0 395 316"><defs><style>.cls-1{fill:#53dbae;}.cls-2{fill:#333;}.cls-3{fill:#ffafb1;}</style></defs><path class="cls-1" d="M336.88,185.24H150.41l-9.76,92c-2,18.72,11.74,35.12,29.41,35.12h148.8c17.88,0,31.67-16.79,29.33-35.7Z"/><path class="cls-1" d="M109.56,126.86h264c8.89,0,16.09-7.69,16.09-17.17s-7.2-17.18-16.09-17.18H135.32Z"/><path class="cls-2" d="M318.85,315.75H170.05a33.53,33.53,0,0,1-25.66-12.25,38.39,38.39,0,0,1-8.54-28.6L151.44,128a5,5,0,0,1,4.8-4.57H330.08a5,5,0,0,1,4.79,4.47L353,274.23a38.41,38.41,0,0,1-8.24,29A33.55,33.55,0,0,1,318.85,315.75Zm-158.3-182-15.1,142.33a27.59,27.59,0,0,0,6.14,20.57,24.1,24.1,0,0,0,18.46,8.82h148.8a24.13,24.13,0,0,0,18.63-9,27.62,27.62,0,0,0,5.92-20.88L325.85,133.73Z"/><path class="cls-2" d="M375.15,133.73H114.39a5.16,5.16,0,0,1,0-10.3H375.15c6.21,0,11.26-5.4,11.26-12s-5.05-12-11.26-12H153a5.16,5.16,0,0,1,0-10.3H375.15c11.53,0,20.92,10,20.92,22.32S386.68,133.73,375.15,133.73Z"/><path class="cls-2" d="M317.2,188.68H153a5.16,5.16,0,0,1,0-10.3H317.2a5.16,5.16,0,0,1,0,10.3Z"/><polygon class="cls-3" points="143.38 76.34 127.72 64.29 165.8 7.96 181.47 20.02 143.38 76.34"/><path class="cls-2" d="M23,262.42a4.57,4.57,0,0,1-2.82-1L1.93,247.39A5.23,5.23,0,0,1,0,244a5.45,5.45,0,0,1,.85-3.84L161.64,2.38a4.64,4.64,0,0,1,6.74-1.16l18.27,14.06a5.19,5.19,0,0,1,1.94,3.36,5.37,5.37,0,0,1-.85,3.83L27,260.29A4.73,4.73,0,0,1,23,262.42ZM11.5,242.05l10.44,8L177.09,20.62l-10.45-8Z"/></svg>