<svg id="Camada_1" data-name="Camada 1" xmlns="http://www.w3.org/2000/svg" viewBox="0 0 390 392"><defs><style>.cls-1{fill:#ffafb1;}.cls-2{fill:#333;}.cls-3{fill:#53dbae;}</style></defs><path class="cls-1" d="M131.53,299.34C110.34,298.23,87.59,288,87.59,288,40.36,296.22,9.23,343.28,6.21,392.11h140l-13-22.79h9.76c1.61-22.16,11.34-45.84,29.3-74.86C172.22,294.46,162.45,301,131.53,299.34Z"/><path class="cls-2" d="M171.43,52.72a4.87,4.87,0,0,1-4.88-4.88,38.19,38.19,0,0,0-76.37,0,4.89,4.89,0,0,1-9.77,0,48,48,0,1,1,95.9,0A4.87,4.87,0,0,1,171.43,52.72Z"/><path class="cls-3" d="M298.49,366.07h72.23a109,109,0,0,0-109-107.41c-.39,0-.77,0-1.16,0C302.41,265.17,312.18,343.28,298.49,366.07Z"/><path class="cls-2" d="M4.59,392.11h-.3a4.9,4.9,0,0,1-4.58-5.18C3,333.65,38.42,290.64,85.86,282.34a4.93,4.93,0,0,1,3.85,1c.13.1,14.79,11.15,41.82,11.15a4.89,4.89,0,0,1,0,9.77c-25.11,0-40.74-8.53-45.94-11.91-42,8.36-73.17,47.2-76.13,95.21A4.88,4.88,0,0,1,4.59,392.11Z"/><path class="cls-2" d="M372.2,370.79a4.89,4.89,0,0,1-4.87-4.61c-3.28-58.47-51.1-104.27-108.86-104.27-48.54,0-91.68,33.07-104.91,80.41a4.89,4.89,0,0,1-9.41-2.63c14.41-51.54,61.42-87.54,114.32-87.54,62.94,0,115,49.84,118.61,113.48a4.89,4.89,0,0,1-4.6,5.15Z"/><path class="cls-2" d="M372.39,392.11H144.55a4.86,4.86,0,0,1-4.06-2.18l-13-19.53a4.88,4.88,0,0,1,4.06-7.59H385.41a4.88,4.88,0,0,1,4.06,7.59l-13,19.53A4.86,4.86,0,0,1,372.39,392.11Zm-225.23-9.77H369.78l6.51-9.76H140.65Z"/><path class="cls-2" d="M271.49,261.91a4.87,4.87,0,0,1-4.88-4.88c0-8.63-4.29-14.65-8.14-14.65s-8.14,6-8.14,14.65a4.88,4.88,0,0,1-9.76,0c0-13.69,7.86-24.41,17.9-24.41s17.9,10.72,17.9,24.41A4.87,4.87,0,0,1,271.49,261.91Z"/><path class="cls-2" d="M77.31,123.68a41.85,41.85,0,0,1-41.8-41.8V79.12a41.85,41.85,0,0,1,41.8-41.8H86a4.89,4.89,0,0,1,0,9.77H77.31a32.07,32.07,0,0,0-32,32v2.76a32.07,32.07,0,0,0,32,32,4.89,4.89,0,0,1,0,9.77Z"/><path class="cls-2" d="M182.5,123.68a4.89,4.89,0,1,1,0-9.77,32.07,32.07,0,0,0,32-32V79.12a32.07,32.07,0,0,0-32-32h-8.66a4.89,4.89,0,0,1,0-9.77h8.66a41.84,41.84,0,0,1,41.79,41.8v2.76A41.84,41.84,0,0,1,182.5,123.68Z"/><path class="cls-2" d="M209.65,180.54H53.41a4.89,4.89,0,0,1-4.88-4.88v-26a4.88,4.88,0,0,1,4.88-4.88H72.94a4.88,4.88,0,0,1,0,9.76H58.29v16.27H204.76V154.5H102.23a4.88,4.88,0,0,1,0-9.76H209.65a4.88,4.88,0,0,1,4.88,4.88v26A4.89,4.89,0,0,1,209.65,180.54Z"/><path class="cls-2" d="M69.69,392.11a4.89,4.89,0,0,1-4.89-4.88V351.42a4.89,4.89,0,0,1,9.77,0v35.81A4.89,4.89,0,0,1,69.69,392.11Z"/><path class="cls-2" d="M203.14,148a4.89,4.89,0,0,1-4.89-4.88v-26a4.89,4.89,0,0,1,9.77,0v26A4.89,4.89,0,0,1,203.14,148Z"/><path class="cls-2" d="M59.92,151.24A4.88,4.88,0,0,1,55,146.36V117.07a4.88,4.88,0,1,1,9.76,0v29.29A4.87,4.87,0,0,1,59.92,151.24Z"/><path class="cls-2" d="M68.52,205.87a4.87,4.87,0,0,1-4.78-3.94,6.94,6.94,0,0,0-1.5-1.25c-2.9-2.05-7.3-5.13-9.56-14.55a49,49,0,0,1-1.18-6.79,4.88,4.88,0,1,1,9.72-.94,40.28,40.28,0,0,0,1,5.44c1.4,5.84,3.49,7.3,5.69,8.85,2,1.39,4.66,3.28,5.46,7.36a4.88,4.88,0,0,1-3.85,5.73A5.17,5.17,0,0,1,68.52,205.87Z"/><path class="cls-2" d="M195,205.82a4.83,4.83,0,0,1-4.79-5.77c.8-4.08,3.49-6,5.46-7.35,2.21-1.56,4.29-3,5.69-8.85a39.92,39.92,0,0,0,1-5.76,4.88,4.88,0,0,1,9.73.82,48.42,48.42,0,0,1-1.22,7.22c-2.26,9.42-6.66,12.51-9.56,14.55a10.3,10.3,0,0,0-1.48,1.16A4.93,4.93,0,0,1,195,205.82Z"/><path class="cls-2" d="M131.75,274.94c-33,0-61.65-30.8-68-73.22a4.88,4.88,0,1,1,9.66-1.46c5.66,37.62,30.21,64.91,58.38,64.91s52.72-27.29,58.38-64.91a4.88,4.88,0,1,1,9.66,1.46C193.4,244.14,164.79,274.94,131.75,274.94Z"/></svg>