<svg id="Camada_1" data-name="Camada 1" xmlns="http://www.w3.org/2000/svg" viewBox="0 0 318 392"><defs><style>.cls-1{fill:#ffafb1;}.cls-2{fill:#53dbae;}.cls-3{fill:#333;}</style></defs><path class="cls-1" d="M257.67,88.61c-3.48,2.77-13.73,7.7-20.32,7.7C224,96.31,224,85.53,210.62,85.53S197.26,96.31,183.9,96.31s-13.36-10.78-26.72-10.78-13.36,10.78-26.71,10.78-13.36-10.78-26.72-10.78S90.39,96.31,77,96.31a36.37,36.37,0,0,1-16.54-4.72l-8.63,10.67c15.23-1.53,14.89,10.67,28.94,10.67,13.36,0,13.36-10.78,26.72-10.78s13.36,10.78,26.72,10.78S147.6,102.15,161,102.15s13.36,10.78,26.72,10.78,13.36-10.78,26.72-10.78,13.36,10.78,26.73,10.78,13.36-10.78,26.72-10.78Z"/><path class="cls-2" d="M287.46,142.75C285.66,119.4,274,106.64,274,106.64c-13.49,0-15.44-.79-23.07,5.37l-31-4.07-1,.44a17.52,17.52,0,0,0-8-1.74c-12.69,0-5.75,8.18-17.21,9.16l-.54,3.26-.81.34-.11,14.35c9.11-2.08,10.58-10.31,22.26-10.31,13.36,0,13.36,10.78,26.73,10.78,7.64,0,10.93-3.52,14.84-6.54a7.53,7.53,0,0,1,9-.23c21.13,15.49,2.82,187.83-.23,214.08h22.73S289.25,166.1,287.46,142.75Z"/><path class="cls-2" d="M31.7,140.86c1.79-23.35,13.47-36.11,13.47-36.11,13.5,0,15.44-.78,23.08,5.38l31-4.07,1,.43a17.57,17.57,0,0,1,8-1.74c12.68,0,5.74,8.18,17.2,9.17l.55,3.26.8.33.11,14.35c-9.11-2.07-10.58-10.31-22.25-10.31-13.37,0-13.37,10.78-26.73,10.78-7.65,0-10.93-3.52-14.84-6.53a7.55,7.55,0,0,0-9-.24c-21.13,15.5-2.82,187.83.23,214.09H31.7S29.9,164.22,31.7,140.86Z"/><path class="cls-3" d="M312.91,389.41H291.36A5.39,5.39,0,0,1,286,384V174.37A126.75,126.75,0,0,0,174.81,48.66c-7.05-.87-5.8-11.52,1.31-10.7A137.54,137.54,0,0,1,296.75,174.37V378.63h10.77V174.37A148.11,148.11,0,0,0,185.94,28.56c-7-1.28-5.11-11.86,1.93-10.61A158.89,158.89,0,0,1,318.3,174.37V384A5.39,5.39,0,0,1,312.91,389.41Z"/><path class="cls-3" d="M27.05,391.21H5.5a5.39,5.39,0,0,1-5.39-5.39V174.37a158.78,158.78,0,0,1,131-156.52c7-1.25,8.91,9.36,1.9,10.61A148,148,0,0,0,10.89,174.37V380.43H21.66V174.37A137.4,137.4,0,0,1,143,37.87c7-.87,8.37,9.88,1.25,10.71A126.61,126.61,0,0,0,32.44,174.37V385.82A5.39,5.39,0,0,1,27.05,391.21Z"/><path class="cls-3" d="M30.74,346.38c-7.12,0-7.13-10.78,0-10.78h35c-14.37-88.36-31-96.39-21-100.78,68.31-29.79,74-99.33,74.17-119.94,0-7.13,10.82-7,10.77.07-.13,21.77-6.09,94.15-75.93,127.6,4.44,12,15.69,45.71,23.62,97.63a5.38,5.38,0,0,1-1.23,4.32C73.83,347.2,74.81,346.38,30.74,346.38Z"/><path class="cls-3" d="M286.62,348.27c-44.05,0-43.09.82-45.41-1.88a5.42,5.42,0,0,1-1.24-4.32c8-52.26,19.33-87.23,23.69-99.49-70.51-33.71-76-106.65-76-128.58,0-7.12,10.79-7.12,10.78,0,0,20.74,5.26,90.76,74.17,120.81,9.94,4.34-6.42,12.82-21,102.67h35a5.39,5.39,0,0,1,0,10.78Z"/><path class="cls-3" d="M289.25,245.15h-18.8c-7.12,0-7.13-10.78,0-10.78h18.8a5.39,5.39,0,1,1,0,10.78Z"/><path class="cls-3" d="M48.52,245.15H29.72c-7.12,0-7.13-10.78,0-10.78h18.8a5.39,5.39,0,0,1,0,10.78Z"/><path class="cls-3" d="M156.25,55.71c-53.15-33.22-17.47-65.23,4-53a21.68,21.68,0,0,1,20.79-.15h0c11.31,6.27,23.52,27.88-16.76,53.13A7.62,7.62,0,0,1,156.25,55.71ZM162,46.57h0ZM139.77,24.39c2.55,8.06,13.79,16.65,20.52,21.11,39.18-26,13.22-40.7,3.58-32.15a5.4,5.4,0,0,1-7.15,0C148.77,6.31,136.55,14.3,139.77,24.39Z"/><path class="cls-3" d="M241.12,118.32c-15.34,0-16.27-10.78-26.73-10.78S203,118.32,187.67,118.32,171.42,107.54,161,107.54s-11.38,10.78-26.71,10.78S118,107.54,107.52,107.54,96.14,118.32,80.8,118.32c-16.12,0-16.3-11.9-28.41-10.7-7,.76-8.2-10-1-10.73,17.47-1.7,18.47,10.65,29.46,10.65,10.46,0,11.38-10.78,26.72-10.78s16.24,10.78,26.72,10.78S145.62,96.76,161,96.76s16.27,10.78,26.72,10.78,11.38-10.78,26.72-10.78,16.26,10.78,26.73,10.78,11.39-10.78,26.72-10.78c7.12,0,7.13,10.78,0,10.78C257.39,107.54,256.45,118.32,241.12,118.32Z"/><path class="cls-3" d="M314.32,392H3.68c-2.2,0-4-2.45-4-5.47s1.78-5.47,4-5.47H314.32c2.2,0,4,2.45,4,5.47S316.52,392,314.32,392Z"/></svg>