<svg width="38" height="48" viewBox="0 0 38 48" fill="none" xmlns="http://www.w3.org/2000/svg">
<path d="M5.12821 47.3334H32.8715C33.5364 47.3551 34.1982 47.2343 34.8126 46.9793C35.427 46.7243 35.9797 46.3409 36.4338 45.8548C36.8879 45.3686 37.2328 44.791 37.4454 44.1607C37.658 43.5304 37.7334 42.8619 37.6665 42.2001L35.0299 16.5334C34.894 15.3633 34.328 14.2854 33.4419 13.5092C32.5557 12.7331 31.4127 12.314 30.2349 12.3334H28.3332V10.0001C28.3332 7.52473 27.3499 5.15076 25.5995 3.40042C23.8492 1.65008 21.4752 0.666748 18.9999 0.666748C16.5245 0.666748 14.1506 1.65008 12.4002 3.40042C10.6499 5.15076 9.66654 7.52473 9.66654 10.0001V12.3334H7.76488C6.59103 12.3198 5.45374 12.7415 4.57254 13.5171C3.69134 14.2928 3.1287 15.3673 2.99321 16.5334L0.333212 42.2001C0.266338 42.8619 0.341733 43.5304 0.55434 44.1607C0.766947 44.791 1.11185 45.3686 1.56594 45.8548C2.02002 46.3409 2.57278 46.7243 3.18716 46.9793C3.80155 47.2343 4.46335 47.3551 5.12821 47.3334ZM11.9999 10.0001C11.9999 8.14357 12.7374 6.36309 14.0501 5.05033C15.3629 3.73758 17.1434 3.00008 18.9999 3.00008C20.8564 3.00008 22.6369 3.73758 23.9496 5.05033C25.2624 6.36309 25.9999 8.14357 25.9999 10.0001V12.3334H11.9999V10.0001ZM5.31488 16.7784C5.38976 16.1857 5.68165 15.6419 6.13415 15.2519C6.58665 14.8618 7.16765 14.6534 7.76488 14.6667H9.66654V18.0384C9.40238 18.2747 9.21618 18.5856 9.13258 18.93C9.04899 19.2745 9.07195 19.6361 9.19841 19.9672C9.32487 20.2983 9.54889 20.5832 9.84081 20.7842C10.1327 20.9852 10.4788 21.0928 10.8332 21.0928C11.1876 21.0928 11.5337 20.9852 11.8256 20.7842C12.1175 20.5832 12.3415 20.2983 12.468 19.9672C12.5945 19.6361 12.6174 19.2745 12.5338 18.93C12.4502 18.5856 12.264 18.2747 11.9999 18.0384V14.6667H25.9999V18.0384C25.7357 18.2747 25.5495 18.5856 25.4659 18.93C25.3823 19.2745 25.4053 19.6361 25.5317 19.9672C25.6582 20.2983 25.8822 20.5832 26.1741 20.7842C26.4661 20.9852 26.8121 21.0928 27.1665 21.0928C27.521 21.0928 27.867 20.9852 28.1589 20.7842C28.4509 20.5832 28.6749 20.2983 28.8013 19.9672C28.9278 19.6361 28.9508 19.2745 28.8672 18.93C28.7836 18.5856 28.5974 18.2747 28.3332 18.0384V14.6667H30.2349C30.8321 14.6534 31.4131 14.8618 31.8656 15.2519C32.3181 15.6419 32.61 16.1857 32.6849 16.7784L35.3215 42.4451C35.3547 42.7597 35.3198 43.0778 35.2191 43.3778C35.1185 43.6777 34.9545 43.9525 34.7382 44.1834C34.5011 44.442 34.2125 44.6482 33.8911 44.7888C33.5697 44.9294 33.2224 45.0014 32.8715 45.0001H5.12821C4.77736 45.0014 4.4301 44.9294 4.10866 44.7888C3.78722 44.6482 3.49869 44.442 3.26155 44.1834C2.88085 43.7698 2.66862 43.2288 2.66655 42.6667H30.6665C30.976 42.6667 31.2727 42.5438 31.4915 42.325C31.7103 42.1062 31.8332 41.8095 31.8332 41.5001C31.8332 41.1907 31.7103 40.8939 31.4915 40.6751C31.2727 40.4563 30.976 40.3334 30.6665 40.3334H2.89988L5.31488 16.7784Z" fill="black"/>
</svg>
