<svg width="39" height="38" viewBox="0 0 39 38" fill="none" xmlns="http://www.w3.org/2000/svg">
<path d="M33.0001 30H18.0001C17.6023 30 17.2207 29.842 16.9394 29.5607C16.6581 29.2794 16.5001 28.8979 16.5001 28.5C16.5001 28.1022 16.6581 27.7207 16.9394 27.4394C17.2207 27.1581 17.6023 27 18.0001 27H31.6201L32.4901 16.5001L30.2551 20.0701C29.9189 20.6158 29.4425 21.0614 28.8755 21.3604C28.3086 21.6595 27.6718 21.8011 27.0316 21.7705C26.3913 21.7398 25.771 21.5381 25.2352 21.1863C24.6994 20.8344 24.2677 20.3454 23.9851 19.7701L20.9851 13.7701L17.9851 19.7701C17.7025 20.3454 17.2708 20.8344 16.735 21.1863C16.1992 21.5381 15.5789 21.7398 14.9386 21.7705C14.2984 21.8011 13.6616 21.6595 13.0947 21.3604C12.5277 21.0614 12.0513 20.6158 11.7151 20.0701L9.51009 16.5001L10.3801 27H12.0001C12.3979 27 12.7794 27.1581 13.0607 27.4394C13.3421 27.7207 13.5001 28.1022 13.5001 28.5C13.5001 28.8979 13.3421 29.2794 13.0607 29.5607C12.7794 29.842 12.3979 30 12.0001 30H9.00009C8.62221 30.0013 8.25779 29.8598 7.97969 29.604C7.7016 29.3481 7.53032 28.9967 7.50009 28.6201L6.00009 10.6201C5.98301 10.293 6.07348 9.96926 6.25766 9.6984C6.44184 9.42755 6.70962 9.22442 7.02009 9.12005C7.34079 9.01161 7.68874 9.01484 8.00737 9.12922C8.326 9.2436 8.59657 9.46241 8.77509 9.75005L14.2801 18.5701C14.3386 18.6594 14.4188 18.7325 14.5133 18.7823C14.6077 18.8322 14.7133 18.8572 14.8201 18.8551C14.9268 18.8504 15.0303 18.8174 15.1199 18.7594C15.2096 18.7014 15.2821 18.6205 15.3301 18.5251L19.6651 9.87005C19.791 9.62435 19.9822 9.41815 20.2178 9.27417C20.4533 9.13018 20.724 9.054 21.0001 9.054C21.2762 9.054 21.5469 9.13018 21.7824 9.27417C22.018 9.41815 22.2092 9.62435 22.3351 9.87005L26.6701 18.5251C26.718 18.6205 26.7906 18.7014 26.8802 18.7594C26.9699 18.8174 27.0734 18.8504 27.1801 18.8551C27.2866 18.8558 27.3917 18.8302 27.486 18.7805C27.5802 18.7308 27.6606 18.6585 27.7201 18.5701L33.2251 9.75005C33.4036 9.46241 33.6742 9.2436 33.9928 9.12922C34.3114 9.01484 34.6594 9.01161 34.9801 9.12005C35.2906 9.22442 35.5583 9.42755 35.7425 9.6984C35.9267 9.96926 36.0172 10.293 36.0001 10.6201L34.5001 28.6201C34.4699 28.9967 34.2986 29.3481 34.0205 29.604C33.7424 29.8598 33.378 30.0013 33.0001 30Z" fill="#53DBAE"/>
<path d="M30.0001 32H15.0001C14.6023 32 14.2207 31.842 13.9394 31.5607C13.6581 31.2794 13.5001 30.8979 13.5001 30.5C13.5001 30.1022 13.6581 29.7207 13.9394 29.4394C14.2207 29.1581 14.6023 29 15.0001 29H28.6201L29.4901 18.5001L27.2551 22.0701C26.9189 22.6158 26.4425 23.0614 25.8755 23.3604C25.3086 23.6595 24.6718 23.8011 24.0316 23.7705C23.3913 23.7398 22.771 23.5381 22.2352 23.1863C21.6994 22.8344 21.2677 22.3454 20.9851 21.7701L17.9851 15.7701L14.9851 21.7701C14.7025 22.3454 14.2708 22.8344 13.735 23.1863C13.1992 23.5381 12.5789 23.7398 11.9386 23.7705C11.2984 23.8011 10.6616 23.6595 10.0947 23.3604C9.52771 23.0614 9.05132 22.6158 8.71509 22.0701L6.51009 18.5001L7.38009 29H9.00009C9.39791 29 9.77944 29.1581 10.0607 29.4394C10.3421 29.7207 10.5001 30.1022 10.5001 30.5C10.5001 30.8979 10.3421 31.2794 10.0607 31.5607C9.77944 31.842 9.39791 32 9.00009 32H6.00009C5.62221 32.0013 5.25779 31.8598 4.97969 31.604C4.7016 31.3481 4.53032 30.9967 4.50009 30.6201L3.00009 12.6201C2.98301 12.293 3.07348 11.9693 3.25766 11.6984C3.44184 11.4275 3.70962 11.2244 4.02009 11.1201C4.34079 11.0116 4.68874 11.0148 5.00737 11.1292C5.326 11.2436 5.59657 11.4624 5.77509 11.7501L11.2801 20.5701C11.3386 20.6594 11.4188 20.7325 11.5133 20.7823C11.6077 20.8322 11.7133 20.8572 11.8201 20.8551C11.9268 20.8504 12.0303 20.8174 12.1199 20.7594C12.2096 20.7014 12.2821 20.6205 12.3301 20.5251L16.6651 11.8701C16.791 11.6244 16.9822 11.4182 17.2178 11.2742C17.4533 11.1302 17.724 11.054 18.0001 11.054C18.2762 11.054 18.5469 11.1302 18.7824 11.2742C19.018 11.4182 19.2092 11.6244 19.3351 11.8701L23.6701 20.5251C23.718 20.6205 23.7906 20.7014 23.8802 20.7594C23.9699 20.8174 24.0734 20.8504 24.1801 20.8551C24.2866 20.8558 24.3917 20.8302 24.486 20.7805C24.5802 20.7308 24.6606 20.6585 24.7201 20.5701L30.2251 11.7501C30.4036 11.4624 30.6742 11.2436 30.9928 11.1292C31.3114 11.0148 31.6594 11.0116 31.9801 11.1201C32.2906 11.2244 32.5583 11.4275 32.7425 11.6984C32.9267 11.9693 33.0172 12.293 33.0001 12.6201L31.5001 30.6201C31.4699 30.9967 31.2986 31.3481 31.0205 31.604C30.7424 31.8598 30.378 32.0013 30.0001 32Z" fill="#333333"/>
</svg>
