<svg id="Camada_1" data-name="Camada 1" xmlns="http://www.w3.org/2000/svg" viewBox="0 0 393 334"><defs><style>.cls-1{fill:#ffafb1;}.cls-2{fill:#333;}.cls-3{fill:#53dbae;}</style></defs><path class="cls-1" d="M303.77,29.39h30.42a57.89,57.89,0,0,1,57.89,57.89v10.4a11.67,11.67,0,0,1-11.67,11.67H303.77a11.67,11.67,0,0,1-11.67-11.67V41.07A11.67,11.67,0,0,1,303.77,29.39Z"/><path class="cls-2" d="M347.19,333.87H44.8c-24.89,0-45.14-19.79-45.14-44.12V73.27c0-24.33,20.25-44.12,45.14-44.12H347.19c24.9,0,45.15,19.79,45.15,44.12V289.75C392.34,314.08,372.09,333.87,347.19,333.87ZM44.8,43.62c-16.72,0-30.33,13.3-30.33,29.65V289.75c0,16.35,13.61,29.65,30.33,29.65H347.19c16.73,0,30.34-13.3,30.34-29.65V73.27c0-16.35-13.61-29.65-30.34-29.65Z"/><path class="cls-2" d="M195.26,274c-50.13,0-90.92-39.87-90.92-88.87s40.79-88.87,90.92-88.87,90.92,39.87,90.92,88.87S245.39,274,195.26,274Zm0-163.27c-42,0-76.12,33.38-76.12,74.4s34.15,74.4,76.12,74.4,76.11-33.38,76.11-74.4S237.23,110.74,195.26,110.74Z"/><path class="cls-2" d="M195.26,245C161.5,245,134,218.14,134,185.14s27.47-59.84,61.23-59.84,61.22,26.84,61.22,59.84S229,245,195.26,245Zm0-105.21c-25.6,0-46.42,20.35-46.42,45.37s20.82,45.37,46.42,45.37,46.42-20.35,46.42-45.37S220.85,139.77,195.26,139.77Z"/><path class="cls-2" d="M384.19,114.37H299.25a7.32,7.32,0,0,1-7.4-7.23V42.56c0-9.56,14.8-9.58,14.8,0V99.9h77.54a7.24,7.24,0,1,1,0,14.47Z"/><path class="cls-2" d="M357.09,293H346c-9.81,0-9.82-14.52,0-14.52h11.13a7.26,7.26,0,1,1,0,14.52Zm-48.25,0H297.7c-9.8,0-9.82-14.52,0-14.52h11.14a7.26,7.26,0,1,1,0,14.52Z"/><path class="cls-3" d="M181.53,216.89c-9-3.73-3.27-17.1,5.78-13.36,17.48,7.22,34.87-11,26.08-27.57a7.19,7.19,0,0,1,3.18-9.78c9.24-4.67,14,9.16,14,19C230.52,209.72,204.76,226.5,181.53,216.89Z"/><path class="cls-2" d="M116.81,113.64H38.86a7.32,7.32,0,0,1-7.4-7.23V75.57a7.32,7.32,0,0,1,7.4-7.23h78a7.32,7.32,0,0,1,7.41,7.23v30.84A7.32,7.32,0,0,1,116.81,113.64ZM46.27,99.17h63.14V82.81H46.27Z"/><path class="cls-2" d="M321,101.69V41.22c0-9.56,14.8-9.57,14.8,0v60.47C335.79,111.25,321,111.27,321,101.69Z"/><path class="cls-2" d="M350.68,101.69V41.22c0-9.56,14.81-9.57,14.81,0v60.47C365.49,111.25,350.68,111.27,350.68,101.69Z"/><path class="cls-2" d="M12.53,36.39v-29A7.32,7.32,0,0,1,19.93.13H92.32a7.32,7.32,0,0,1,7.4,7.23V34.57c0,9.56-14.81,9.58-14.81,0v-20H27.34V36.39C27.34,46,12.53,46,12.53,36.39Z"/></svg>