<svg id="Camada_1" data-name="Camada 1" xmlns="http://www.w3.org/2000/svg" viewBox="0 0 391 378"><defs><style>.cls-1{fill:#ffafb1;}.cls-2{fill:#53dbae;}.cls-3{fill:#333;}.cls-4{fill:#fff;}.cls-5{fill:none;stroke:#333;stroke-miterlimit:10;stroke-width:9.84px;}</style></defs><rect class="cls-1" x="29.42" y="154.6" width="19.69" height="203.44"/><circle class="cls-2" cx="198.4" cy="190.79" r="149.3"/><path class="cls-3" d="M196.83,377.91A188.58,188.58,0,0,1,71,329.9a5,5,0,1,1,6.68-7.48A178.9,178.9,0,0,0,339.82,296.5a5,5,0,0,1,8,6A187.54,187.54,0,0,1,196.83,377.91Z"/><path class="cls-3" d="M344,83.66a5,5,0,0,1-4-2A178.93,178.93,0,0,0,91.75,44.22a5,5,0,0,1-5.89-8.11A188.95,188.95,0,0,1,348,75.63a5,5,0,0,1-4,8Z"/><path class="cls-3" d="M39.91,361.19a18.17,18.17,0,0,1-18.42-18.47l3.15-187.24a4.92,4.92,0,0,1,5.1-4.93,5,5,0,0,1,4.93,5.1L31.52,342.89a8.14,8.14,0,0,0,8.14,8.27,8.22,8.22,0,0,0,6.05-2.43,8,8,0,0,0,2.34-5.84L44.9,155.65a5,5,0,0,1,4.93-5.1,4.93,4.93,0,0,1,5.1,4.93l3.15,187.24a18.17,18.17,0,0,1-18.17,18.47Z"/><path class="cls-3" d="M39.69,161.71A40.12,40.12,0,0,1-.43,120.86L3.7,38.73a5,5,0,1,1,10,.5l-4.11,82a30.1,30.1,0,0,0,30.09,30.48A30.08,30.08,0,0,0,69.77,121L65.66,39.23a5,5,0,0,1,10-.5l4.12,82a40.11,40.11,0,0,1-40.11,41Z"/><path class="cls-3" d="M69.78,127.14H6.25a5,5,0,0,1,0-10H69.78a5,5,0,1,1,0,10Z"/><path class="cls-3" d="M29.66,123.8a5,5,0,0,1-5-5V38.54a5,5,0,1,1,10,0v80.25A5,5,0,0,1,29.66,123.8Z"/><path class="cls-3" d="M49.72,123.8a5,5,0,0,1-5-5V38.54a5,5,0,1,1,10,0v80.25A5,5,0,0,1,49.72,123.8Z"/><path class="cls-3" d="M374.71,361.19a17.72,17.72,0,0,1-17.72-18L359,219a5,5,0,0,1,10,.16l-2,124.17a7.6,7.6,0,0,0,2.21,5.52,7.73,7.73,0,0,0,10.81,0,8.31,8.31,0,0,0,2.36-6l-2.86-289c-6,8.76-11.81,18.18-12.87,22.61-1.22,5-4.11,26.16-6.91,46.57-1.93,14.13-3.93,28.74-5.56,39.47a33.32,33.32,0,0,0,13.67,32.36,5,5,0,0,1-5.69,8.26A43.41,43.41,0,0,1,344.28,161c1.62-10.65,3.62-25.23,5.55-39.32,2.95-21.61,5.75-42,7.09-47.57,2.65-11,21.36-35.83,23.49-38.63a5,5,0,0,1,9,3l3,304.26a18.25,18.25,0,0,1-5.24,13.18A17.37,17.37,0,0,1,374.71,361.19Z"/><ellipse class="cls-4" cx="198.4" cy="190.79" rx="90.23" ry="93.51"/><circle class="cls-5" cx="198.27" cy="190.73" r="88.11" transform="translate(-58.37 91.61) rotate(-22.77)"/></svg>