<svg width="24" height="33" viewBox="0 0 24 33" fill="none" xmlns="http://www.w3.org/2000/svg">
<path d="M11.9934 2.03331L11.9934 2.0334L12.0065 2.03331C13.3725 2.02432 14.7264 2.27852 15.9908 2.78089C17.2551 3.28324 18.4045 4.02362 19.3737 4.95868C20.3429 5.89369 21.113 7.00498 21.6411 8.22849C22.1688 9.45093 22.445 10.7621 22.4545 12.0875C22.4533 17.2721 19.7532 22.0212 16.9454 25.5418C15.5512 27.29 14.155 28.7044 13.1077 29.6812C12.6666 30.0926 12.2885 30.4253 12 30.6715C11.7114 30.4253 11.3333 30.0926 10.8922 29.6812C9.84486 28.7044 8.44869 27.29 7.0545 25.5418C4.24668 22.0212 1.54661 17.2721 1.54541 12.0874C1.55493 10.7621 1.8311 9.4509 2.35879 8.22849C2.88695 7.00498 3.65705 5.89369 4.62623 4.95868C5.59546 4.02362 6.74478 3.28324 8.00911 2.78089C9.27348 2.27852 10.6274 2.02432 11.9934 2.03331Z" stroke="#666666" stroke-width="2" stroke-linecap="round" stroke-linejoin="round"/>
<path d="M15.909 12.2333C15.909 14.311 14.1801 16.0333 11.9999 16.0333C9.81968 16.0333 8.09082 14.311 8.09082 12.2333C8.09082 10.1557 9.81968 8.43335 11.9999 8.43335C14.1801 8.43335 15.909 10.1557 15.909 12.2333Z" stroke="#666666" stroke-width="2" stroke-linecap="round" stroke-linejoin="round"/>
</svg>
